HIERARCHY
ROOT Hips
{
	OFFSET 0.0 0.0 0.0
	CHANNELS 6 Xposition Yposition Zposition Zrotation Yrotation Xrotation 
	JOINT LeftUpLeg
	{
		OFFSET 0.103457 1.857819 10.548500
		CHANNELS 3 Zrotation Yrotation Xrotation
		JOINT LeftLeg
		{
			OFFSET 43.500000 -0.000019 -0.000010
			CHANNELS 3 Zrotation Yrotation Xrotation
			JOINT LeftFoot
			{
				OFFSET 42.372196 0.000008 0.000000
				CHANNELS 3 Zrotation Yrotation Xrotation
				JOINT LeftToe
				{
					OFFSET 17.300003 0.000001 0.000006
					CHANNELS 3 Zrotation Yrotation Xrotation
					End Site
					{
						OFFSET 0.000000 0.000000 0.000000
					}
				}
			}
		}
	}
	JOINT RightUpLeg
	{
		OFFSET 0.103456 1.857821 -10.548498
		CHANNELS 3 Zrotation Yrotation Xrotation
		JOINT RightLeg
		{
			OFFSET 43.500046 -0.000031 0.000019
			CHANNELS 3 Zrotation Yrotation Xrotation
			JOINT RightFoot
			{
				OFFSET 42.372261 -0.000004 0.000021
				CHANNELS 3 Zrotation Yrotation Xrotation
				JOINT RightToe
				{
					OFFSET 17.300016 0.000003 0.000000
					CHANNELS 3 Zrotation Yrotation Xrotation
					End Site
					{
						OFFSET 0.000000 0.000000 0.000000
					}
				}
			}
		}
	}
	JOINT Spine
	{
		OFFSET 6.901967 -2.603733 -0.000002
		CHANNELS 3 Zrotation Yrotation Xrotation
		JOINT Spine1
		{
			OFFSET 12.588102 0.000004 -0.000004
			CHANNELS 3 Zrotation Yrotation Xrotation
			JOINT Spine2
			{
				OFFSET 12.343203 -0.000004 0.000000
				CHANNELS 3 Zrotation Yrotation Xrotation
				JOINT Neck
				{
					OFFSET 25.832895 -0.000011 0.000005
					CHANNELS 3 Zrotation Yrotation Xrotation
					JOINT Head
					{
						OFFSET 11.766605 0.000003 0.000008
						CHANNELS 3 Zrotation Yrotation Xrotation
						End Site
						{
							OFFSET 0.000000 0.000000 0.000000
						}
					}
				}
				JOINT LeftShoulder
				{
					OFFSET 19.745905 -1.480360 6.000111
					CHANNELS 3 Zrotation Yrotation Xrotation
					JOINT LeftArm
					{
						OFFSET 11.284124 0.000007 -0.000017
						CHANNELS 3 Zrotation Yrotation Xrotation
						JOINT LeftForeArm
						{
							OFFSET 33.000050 0.000003 0.000017
							CHANNELS 3 Zrotation Yrotation Xrotation
							JOINT LeftHand
							{
								OFFSET 25.200005 0.000010 0.000011
								CHANNELS 3 Zrotation Yrotation Xrotation
								End Site
								{
									OFFSET 0.000000 0.000000 0.000000
								}
							}
						}
					}
				}
				JOINT RightShoulder
				{
					OFFSET 19.746092 -1.480387 -6.000073
					CHANNELS 3 Zrotation Yrotation Xrotation
					JOINT RightArm
					{
						OFFSET 11.284132 -0.000045 -0.000015
						CHANNELS 3 Zrotation Yrotation Xrotation
						JOINT RightForeArm
						{
							OFFSET 33.000092 0.000031 0.000005
							CHANNELS 3 Zrotation Yrotation Xrotation
							JOINT RightHand
							{
								OFFSET 25.199797 0.000145 0.000419
								CHANNELS 3 Zrotation Yrotation Xrotation
								End Site
								{
									OFFSET 0.000000 0.000000 0.000000
								}
							}
						}
					}
				}
			}
		}
	}
}
MOTION
Frames: 17
Frame Time: 0.033333
-4.134178 91.935387 55.458031 88.110840 1.071154 -121.775989 170.881183 -4.955305 167.034653 -19.091221 2.099057 -4.698745 78.358874 1.390909 -7.259983 21.454551 0.003101 -0.000001 168.560121 -2.372604 -178.904689 -18.785875 -3.396479 4.539760 78.202319 -2.315546 3.156386 21.454562 -0.003120 -0.000019 6.087986 1.036832 -0.256319 2.159002 2.078090 -0.493878 1.840686 2.075205 -0.506427 -0.258525 -1.826223 6.298489 2.736412 -5.838371 6.410731 -167.496196 -70.363195 -14.211170 -19.753812 56.452531 13.446225 -19.477061 -6.107464 0.492483 9.631863 -9.623077 33.779114 -167.334334 72.551130 14.370978 -14.510206 -48.843485 -25.740905 -41.123049 16.229515 -1.596013 6.397942 5.043816 -14.091301 
-4.082041 92.012131 54.856400 88.053440 0.835527 -122.050044 172.092149 -4.666796 166.736829 -17.900162 1.783207 -4.690849 78.236620 1.421873 -7.118175 21.454551 0.003093 -0.000001 169.159552 -2.177089 -178.915480 -18.588232 -3.683836 4.365706 78.395484 -2.144309 3.344974 21.454558 -0.003102 -0.000017 6.075268 0.999193 -0.243514 2.133900 2.002528 -0.469173 1.815595 1.999786 -0.481262 0.095078 -1.771017 6.527189 2.494467 -6.253405 6.768695 -167.447688 -70.445369 -14.261123 -19.656951 56.693869 13.807120 -19.112831 -5.867174 0.472553 9.538578 -9.346900 34.309816 -167.450489 72.507710 14.251494 -14.186198 -49.229524 -25.543084 -40.331622 16.219865 -1.574023 6.555191 4.985227 -13.910288 
-4.095921 92.073410 54.344620 87.984263 0.738620 -122.092049 172.951263 -4.283705 165.954841 -16.838288 1.925563 -4.302552 78.115412 1.182898 -6.948668 21.454551 0.003088 0.000000 169.541510 -1.976894 -178.681273 -18.463050 -3.951311 4.188964 78.586483 -1.972676 3.533055 21.454555 -0.003105 -0.000017 6.041964 0.992266 -0.269336 2.066864 1.988990 -0.521525 1.748571 1.985948 -0.533539 0.269234 -1.681617 6.801082 2.340015 -6.795745 7.199907 -167.568104 -70.495858 -14.136766 -19.706257 56.848262 14.105304 -19.089137 -5.875397 0.472849 9.393451 -9.430191 34.912867 -167.388320 72.574981 14.315353 -13.855245 -49.606978 -25.802916 -39.340257 16.039188 -1.536087 6.804527 4.457625 -13.899267 
-4.131352 92.133522 53.927650 87.944047 0.731332 -121.875000 173.580242 -3.893913 165.130191 -15.838369 2.276486 -3.745894 77.935068 0.816450 -6.785832 21.454555 0.003092 -0.000001 169.862666 -1.837205 -178.487186 -18.277658 -4.157704 4.192505 78.708525 -1.920233 3.748266 21.454558 -0.003107 -0.000016 6.005983 1.013003 -0.336751 1.993574 2.031400 -0.656667 1.675298 2.027540 -0.668924 0.283853 -1.496102 7.109987 2.235803 -7.445095 7.718663 -167.840397 -70.543457 -13.855513 -20.002487 56.823834 14.382845 -19.400688 -5.972097 0.482643 9.344188 -9.542876 35.031654 -167.286810 72.647927 14.419747 -13.521658 -49.824983 -26.476856 -38.229819 15.716740 -1.486615 7.114627 3.591347 -13.773602 
-4.150609 92.196838 53.578091 87.944908 0.694091 -121.467046 174.219438 -3.590814 164.574829 -14.799546 2.457870 -3.209403 77.658493 0.473581 -6.583585 21.454551 0.003092 0.000003 170.273911 -1.762308 -178.509548 -18.003907 -4.327446 4.442350 78.761514 -2.025502 4.017122 21.454558 -0.003120 -0.000019 5.989958 1.034270 -0.433531 1.959672 2.075422 -0.850215 1.641393 2.070400 -0.862741 0.237769 -1.260810 7.446825 2.159797 -8.024718 8.265606 -168.163096 -70.672862 -13.522373 -20.529571 56.630717 14.643487 -20.044461 -6.114798 0.499311 9.332641 -9.408195 34.903448 -167.369291 72.628318 14.334909 -13.160656 -49.895003 -27.416596 -36.943708 15.344534 -1.430530 7.426546 2.614256 -13.430554 
-4.139554 92.251213 53.272999 87.992446 0.584362 -120.988031 174.959640 -3.404000 164.645685 -13.748163 2.303077 -2.969600 77.350239 0.348962 -6.371125 21.454555 0.003088 -0.000001 170.776231 -1.745604 -178.697870 -17.724524 -4.487382 4.839680 78.797679 -2.226234 4.315448 21.454557 -0.003108 -0.000018 5.998011 1.042493 -0.529857 1.973987 2.093525 -1.042603 1.655708 2.087335 -1.055235 0.207828 -1.067844 7.811835 2.188511 -8.392415 8.766390 -168.422493 -70.954724 -13.254787 -21.149076 56.356403 14.945690 -21.107007 -6.357449 0.527970 9.296555 -8.907735 34.962926 -167.661910 72.558554 14.033909 -12.643218 -50.026641 -28.336022 -35.534841 15.030192 -1.376527 7.762554 1.554538 -13.162347 
-4.107050 92.282623 53.014999 88.067066 0.464806 -120.547006 175.643355 -3.312194 165.441184 -12.876571 1.944604 -3.162959 77.109653 0.513375 -6.252494 21.454550 0.003106 0.000002 171.231340 -1.785010 -178.809995 -17.535746 -4.677521 5.183049 78.864697 -2.395774 4.589016 21.454560 -0.003113 -0.000017 6.014755 1.041233 -0.596287 2.006270 2.092265 -1.175209 1.688002 2.085261 -1.187824 0.192882 -0.928262 8.205475 2.330728 -8.645508 9.235708 -168.517979 -71.342992 -13.156623 -21.680958 55.997757 15.486759 -22.749427 -6.745338 0.574760 9.254121 -8.065094 35.316019 -168.044797 72.551321 13.639919 -11.790328 -50.409146 -29.006430 -34.293782 14.867136 -1.337521 8.248873 0.196361 -13.350593 
-4.075017 92.284393 52.821449 88.138277 0.402107 -120.170048 176.077851 -3.283002 166.594598 -12.352205 1.598292 -3.600842 77.005574 0.828198 -6.244974 21.454553 0.003084 -0.000000 171.506187 -1.869788 -178.616127 -17.495690 -4.945024 5.324794 78.983358 -2.437362 4.810779 21.454558 -0.003105 -0.000017 6.030729 1.037315 -0.627034 2.037709 2.085119 -1.236479 1.719459 2.077750 -1.249056 0.139426 -0.835404 8.652545 2.460298 -8.918326 9.739446 -168.381389 -71.701413 -13.297737 -21.989821 55.479957 16.339098 -25.033159 -7.302865 0.644333 9.115249 -7.085610 35.946681 -168.388192 72.654785 13.286639 -10.607502 -50.998635 -29.440052 -33.511340 14.830321 -1.317748 8.904637 -1.535426 -14.006039 
-4.058928 92.268883 52.706100 88.178459 0.385852 -119.812009 176.261200 -3.323389 167.662047 -12.131812 1.252284 -3.991732 77.002453 1.116701 -6.227214 21.454548 0.003086 0.000000 171.601932 -1.964699 -178.045574 -17.565353 -5.316801 5.247299 79.128022 -2.334511 4.991755 21.454565 -0.003121 -0.000019 6.054307 1.027492 -0.637068 2.084772 2.065892 -1.256297 1.766538 2.058407 -1.268751 0.027082 -0.801204 9.187024 2.433892 -9.253954 10.329329 -168.047789 -71.920512 -13.641586 -22.047854 54.806964 17.193972 -27.784197 -8.031554 0.736976 8.755070 -6.255203 36.721505 -168.710918 72.811469 12.954870 -9.352114 -51.569264 -29.820924 -33.146348 14.760080 -1.305252 9.495582 -3.305634 -14.664251 
-4.075154 92.240929 52.675259 88.176827 0.393781 -119.405039 176.162996 -3.389015 168.488063 -12.253845 0.960976 -4.204146 77.097024 1.293570 -6.168040 21.454553 0.003096 -0.000000 171.533562 -2.028301 -177.143415 -17.740122 -5.764628 5.011084 79.291734 -2.125362 5.149502 21.454558 -0.003109 -0.000016 6.092511 1.007908 -0.636558 2.161424 2.027142 -1.254927 1.843198 2.019667 -1.267144 -0.075521 -0.832896 9.793046 2.213894 -9.628452 10.991145 -167.649507 -72.004612 -14.051866 -22.003796 54.090737 17.574729 -30.623249 -8.810300 0.840049 8.224247 -5.838955 37.223076 -169.127300 72.950122 12.526835 -8.318120 -51.954216 -30.333563 -32.879510 14.567441 -1.287065 9.731692 -4.693481 -14.828694 
-4.161234 92.196564 52.741661 88.093348 0.468811 -118.857053 175.573838 -3.400405 169.114009 -12.934977 0.831793 -4.225253 77.353477 1.344037 -6.088073 21.454555 0.003070 -0.000003 171.202011 -1.970308 -176.008866 -18.101005 -6.164250 4.713625 79.501223 -1.882594 5.279440 21.454560 -0.003117 -0.000017 6.135000 0.978683 -0.625345 2.246890 1.968934 -1.232266 1.928677 1.961602 -1.244142 -0.144692 -0.939580 10.414809 1.923909 -9.989515 11.645911 -167.294487 -72.025076 -14.417542 -22.135706 53.461916 17.246849 -33.157136 -9.494528 0.936176 7.703097 -5.916121 37.112318 -169.575702 73.058681 12.066035 -7.657299 -52.183062 -31.000555 -32.478666 14.325994 -1.262961 9.630783 -5.475114 -14.447387 
-4.362429 92.121140 52.924149 87.904384 0.685644 -118.020997 174.224875 -3.281599 169.588242 -14.442111 0.998656 -4.037922 77.850114 1.254496 -6.000806 21.454551 0.003084 0.000001 170.474036 -1.699204 -174.744584 -18.779141 -6.359079 4.484929 79.802428 -1.703213 5.379461 21.454560 -0.003111 -0.000018 6.172545 0.948495 -0.602951 2.322704 1.908560 -1.187423 2.004475 1.901483 -1.198918 -0.281958 -1.099758 10.982132 1.769515 -10.341964 12.207504 -167.101002 -72.030321 -14.616852 -22.667385 52.961854 16.288867 -35.210957 -10.073687 1.019020 7.307779 -6.267266 36.653343 -169.779706 73.130419 11.856531 -7.396910 -52.331099 -31.638112 -31.983594 14.099607 -1.237966 9.472362 -5.649312 -13.961714 
-4.688659 92.022011 53.217640 87.647829 1.032144 -116.749011 172.086329 -3.049003 169.942551 -16.842079 1.432597 -3.534674 78.379972 0.959425 -5.834097 21.454551 0.003102 0.000000 169.459616 -1.180807 -173.446452 -19.688334 -6.269567 4.449608 80.151935 -1.668659 5.471232 21.454558 -0.003116 -0.000019 6.222129 0.933474 -0.576233 2.422427 1.878433 -1.133424 2.104223 1.871698 -1.144756 -0.625608 -1.312877 11.494209 1.822444 -10.715671 12.662986 -167.125891 -72.026626 -14.591270 -23.602366 52.612302 14.901904 -36.941765 -10.663863 1.097825 7.086071 -6.511271 36.497713 -169.611601 73.215024 12.029586 -7.494553 -52.433989 -32.067543 -31.548299 13.845876 -1.212641 9.413955 -5.308932 -13.823564 
-5.112833 91.893059 53.578121 87.447984 1.449458 -114.994991 169.622707 -2.787294 170.243326 -19.527236 1.967744 -2.679056 78.881158 0.420394 -5.643866 21.454551 0.003081 -0.000000 168.391074 -0.561297 -172.249489 -20.688126 -6.013173 4.726460 80.496566 -1.830526 5.666015 21.454560 -0.003113 -0.000018 6.307111 0.956199 -0.544828 2.592772 1.924048 -1.068744 2.274533 1.917680 -1.080335 -1.166163 -1.576088 12.006801 1.925975 -11.197010 13.101951 -167.385096 -71.992140 -14.324285 -24.710286 52.444723 13.311689 -38.633630 -11.361589 1.184793 7.039257 -6.513449 37.007345 -169.401204 73.312580 12.246029 -7.798321 -52.365530 -32.489031 -31.254707 13.527523 -1.186135 9.366872 -4.611737 -13.978660 
-5.598640 91.767616 53.951370 87.271239 1.885542 -112.832034 167.326603 -2.479807 170.615967 -21.712039 2.330104 -1.584052 79.154359 -0.256006 -5.313824 21.454555 0.003088 -0.000000 167.439683 0.040695 -171.378462 -21.557878 -5.834217 5.425351 80.741128 -2.219051 6.126372 21.454562 -0.003109 -0.000019 6.413283 1.002580 -0.505802 2.805434 2.016821 -0.987784 2.487175 2.010958 -0.999951 -1.725559 -1.906282 12.607606 1.885158 -11.854005 13.649124 -167.748900 -71.892297 -13.949584 -25.734732 52.506601 11.730355 -40.364383 -12.134098 1.279657 7.027677 -6.603076 38.004552 -169.716390 73.454382 11.922502 -8.123185 -52.034683 -33.344406 -31.058352 13.187090 -1.160213 9.231155 -3.796934 -13.985238 
-6.122000 91.647034 54.307430 87.083157 2.404810 -110.381103 165.285141 -2.267003 171.223403 -23.313929 2.237126 -0.519297 79.517383 -1.051107 -5.595173 21.454551 0.003095 0.000001 166.532812 0.542003 -170.996614 -22.310507 -5.830272 6.593883 80.876256 -2.847946 6.920556 21.454560 -0.003105 -0.000018 6.492054 1.059826 -0.451223 2.963632 2.130587 -0.875814 2.645336 2.125397 -0.888670 -2.087024 -2.297549 13.344927 1.687003 -12.674211 14.367279 -167.920788 -71.725135 -13.772400 -26.585388 52.818679 10.359683 -41.859146 -12.838316 1.365688 6.769271 -7.260253 38.992939 -170.689720 73.616182 10.923296 -8.388102 -51.430945 -34.807194 -30.846944 12.869154 -1.135476 9.053773 -3.129564 -13.620880 
-6.641490 91.528740 54.628979 86.984583 3.042094 -107.726071 163.325642 -2.398694 172.029830 -24.852053 1.519005 0.659922 80.708254 -2.106899 -6.879804 21.454551 0.003101 0.000002 165.683792 0.886204 -170.939459 -22.937708 -5.917697 8.088629 80.868470 -3.641609 7.938519 21.454555 -0.003097 -0.000015 6.518201 1.132368 -0.366500 3.017147 2.273675 -0.704031 2.698809 2.269529 -0.717753 -2.137561 -2.661145 14.152012 1.495970 -13.551205 15.196138 -167.806915 -71.538862 -13.889828 -27.281125 53.337828 9.354864 -42.779435 -13.315470 1.422290 6.123657 -8.702807 39.530645 -171.780569 73.806532 9.804072 -8.607394 -50.743033 -36.465482 -30.554400 12.576381 -1.110764 8.930113 -2.802397 -13.171948 
